<?xml version="1.0" encoding="iso-8859-1"?>
<!-- Generator: Adobe Illustrator 19.0.0, SVG Export Plug-In . SVG Version: 6.00 Build 0)  -->
<svg xmlns="http://www.w3.org/2000/svg" xmlns:xlink="http://www.w3.org/1999/xlink" version="1.1" id="Capa_1" x="0px" y="0px" viewBox="0 0 512.002 512.002" style="enable-background:new 0 0 512.002 512.002;" xml:space="preserve">
<polygon style="fill:#E70020;" points="353.063,0 226.446,126.617 387.398,126.617 433.539,80.475 "/>
<polygon style="fill:#FF623F;" points="158.939,0 78.463,80.475 124.604,126.617 285.556,126.617 "/>
<polygon style="fill:#0088FF;" points="469.709,191.389 469.709,512 42.293,512 42.293,191.389 217.769,191.389 217.769,206.393   294.233,206.393 294.233,191.389 "/>
<polygon style="fill:#005FD2;" points="486.634,96.609 486.634,221.398 294.233,221.398 294.233,206.393 217.769,206.393   217.769,221.398 25.368,221.398 25.368,96.609 "/>
<rect x="195.253" y="96.611" style="fill:#FFB74D;" width="121.498" height="415.391"/>
<polygon style="fill:#006DF4;" points="469.709,191.389 469.709,512 256.001,512 256.001,206.393 294.233,206.393 294.233,191.389   "/>
<polygon style="fill:#3A4DE2;" points="486.634,96.609 486.634,221.398 294.233,221.398 294.233,206.393 256.001,206.393   256.001,96.609 "/>
<rect x="256.002" y="96.611" style="fill:#FF9A00;" width="60.749" height="415.391"/>
<g>
</g>
<g>
</g>
<g>
</g>
<g>
</g>
<g>
</g>
<g>
</g>
<g>
</g>
<g>
</g>
<g>
</g>
<g>
</g>
<g>
</g>
<g>
</g>
<g>
</g>
<g>
</g>
<g>
</g>
</svg>
