<?xml version="1.0" encoding="iso-8859-1"?>
<!-- Generator: Adobe Illustrator 19.0.0, SVG Export Plug-In . SVG Version: 6.00 Build 0)  -->
<svg version="1.1" id="Capa_1" xmlns="http://www.w3.org/2000/svg" xmlns:xlink="http://www.w3.org/1999/xlink" x="0px" y="0px"
	 viewBox="0 0 511.999 511.999" style="enable-background:new 0 0 511.999 511.999;" xml:space="preserve">
<path style="fill:#A67955;" d="M292.003,235.3c-0.308-8.055-6.928-14.3-14.989-14.3h-42.028c-8.061,0-14.681,6.245-14.989,14.3
	l-9.989,261.19c-0.156,4.075,1.354,8.006,4.182,10.943c2.828,2.938,6.729,4.566,10.807,4.566h62.007
	c4.078,0,7.979-1.66,10.807-4.598s4.338-6.837,4.182-10.912L292.003,235.3z"/>
<path style="fill:#DEA06D;" d="M255.999,221h-21.014c-8.061,0-14.681,6.245-14.989,14.3l-9.989,261.19
	c-0.156,4.075,1.354,8.006,4.182,10.943c2.828,2.938,6.729,4.566,10.807,4.566h31.003V221z"/>
<path style="fill:#4C8C51;" d="M454.831,139.007c0-44.686-36.354-81.041-81.04-81.041c-3.332,0-6.661,0.207-9.967,0.617
	C340.236,22.183,299.878,0,255.999,0c-44.163,0-84.665,22.405-108.195,59.155c-3.183-0.379-6.388-0.57-9.596-0.57
	c-44.686,0-81.04,36.354-81.04,81.041c0,34.466,21.567,64.494,52.939,76.026c-0.034,0.949-0.051,1.897-0.051,2.845
	c0,44.295,36.037,80.332,80.333,80.332c7.277,0,14.416-0.963,21.329-2.872c12.196,10.618,27.843,16.553,44.266,16.553
	c16.428,0,32.077-5.936,44.274-16.56c6.92,1.914,14.067,2.879,21.352,2.879c44.295,0,80.332-36.037,80.332-80.332
	c0-1.149-0.025-2.3-0.075-3.452C433.258,203.524,454.831,173.507,454.831,139.007z"/>
<g>
	<path style="fill:#57A15E;" d="M255.999,0c-44.163,0-84.665,22.405-108.195,59.155c-3.183-0.379-6.388-0.57-9.596-0.57
		c-44.686,0-81.04,36.354-81.04,81.041c0,34.466,21.567,64.494,52.939,76.026c-0.034,0.949-0.051,1.897-0.051,2.845
		c0,44.295,36.037,80.332,80.333,80.332c7.277,0,14.416-0.963,21.329-2.872c12.196,10.618,27.843,16.553,44.266,16.553L255.999,0z"
		/>
	<path style="fill:#57A15E;" d="M255.999,181.532c-8.284,0-15,6.716-15,15v17.393c0,8.284,6.716,15,15,15c8.284,0,15-6.716,15-15
		v-17.393C271,188.248,264.284,181.532,255.999,181.532z"/>
</g>
<g>
	<path style="fill:#6AC473;" d="M255.999,181.532c-8.284,0-15,6.716-15,15v17.393c0,8.284,6.716,15,15,15V181.532z"/>
	<path style="fill:#6AC473;" d="M193.859,199.056c-4.129-7.182-13.299-9.656-20.481-5.527c-7.182,4.129-9.656,13.299-5.527,20.481
		l10,17.393c2.775,4.826,7.824,7.525,13.018,7.525c2.536,0,5.107-0.644,7.463-1.999c7.182-4.129,9.656-13.299,5.527-20.481
		L193.859,199.056z"/>
</g>
<path style="fill:#57A15E;" d="M338.621,193.529c-7.181-4.128-16.351-1.655-20.481,5.527l-10,17.393
	c-4.129,7.182-1.655,16.352,5.527,20.481c2.356,1.354,4.927,1.999,7.463,1.999c5.193,0,10.244-2.7,13.018-7.525l10-17.393
	C348.277,206.829,345.802,197.659,338.621,193.529z"/>
<g>
</g>
<g>
</g>
<g>
</g>
<g>
</g>
<g>
</g>
<g>
</g>
<g>
</g>
<g>
</g>
<g>
</g>
<g>
</g>
<g>
</g>
<g>
</g>
<g>
</g>
<g>
</g>
<g>
</g>
</svg>
