<?xml version="1.0" encoding="iso-8859-1"?>
<!-- Generator: Adobe Illustrator 19.0.0, SVG Export Plug-In . SVG Version: 6.00 Build 0)  -->
<svg version="1.1" id="Capa_1" xmlns="http://www.w3.org/2000/svg" xmlns:xlink="http://www.w3.org/1999/xlink" x="0px" y="0px"
	 viewBox="0 0 512 512" style="enable-background:new 0 0 512 512;" xml:space="preserve">
<path style="fill:#6AC473;" d="M442.296,299.313l-64.133,11.09l78.261-73.467c4.592-4.311,6.006-11.034,3.539-16.831
	c-2.467-5.798-8.292-9.418-14.579-9.112l-66.845,3.457l47.601-49.877c3.892-4.078,5.172-9.993,3.315-15.316
	c-1.857-5.323-6.538-9.157-12.119-9.925c-2.56-0.353-52.315-6.902-92.515,9.206c-1.684-44.206-16.386-87.19-42.547-123.338
	c-4.071-5.626-7.594-10.491-10.102-13.95l-3.775-4.963C265.02,1.684,260.477,0,256.115,0c-0.077,0-0.152,0-0.229,0
	c-4.361,0-8.906,1.685-12.282,6.287l-3.775,5.078c-2.507,3.458-6.031,8.266-10.102,13.891
	c-26.161,36.149-40.863,79.105-42.547,123.31c-40.2-16.106-89.955-9.572-92.515-9.219c-5.582,0.768-10.263,4.594-12.119,9.918
	c-1.857,5.324-0.577,11.234,3.315,15.312l47.601,49.875l-66.845-3.458c-6.29-0.304-12.111,3.314-14.579,9.111
	s-1.054,12.52,3.539,16.831l78.261,73.467l-64.134-11.09c-4.733-0.817-9.572,0.68-13.016,4.031
	c-3.444,3.351-5.076,8.148-4.391,12.905c5.61,38.938,26.17,73.181,57.891,96.423c25.172,18.441,54.819,28.089,85.356,28.088
	c7.946,0,15.955-0.653,23.958-1.975l36.758-5.985l36.207,5.979c38.791,6.402,77.625-2.867,109.346-26.108
	c31.721-23.242,52.281-57.486,57.891-96.423c0.685-4.757-0.947-9.554-4.391-12.905C451.868,299.994,447.031,298.498,442.296,299.313
	z"/>
<path style="fill:#A9E570;" d="M256.115,0h-0.229c-4.361,0-8.906,1.685-12.282,6.287l-3.775,5.078
	c-2.507,3.458-6.031,8.266-10.102,13.891c-26.161,36.149-40.863,79.106-42.547,123.31c-40.2-16.106-89.955-9.572-92.515-9.219
	c-5.582,0.768-10.263,4.594-12.119,9.918c-1.857,5.323-0.577,11.234,3.315,15.312l47.601,49.875l-66.845-3.458
	c-6.29-0.304-12.111,3.314-14.579,9.111s-1.054,12.52,3.539,16.831l78.261,73.467l-64.134-11.091
	c-4.733-0.817-9.572,0.68-13.016,4.031c-3.444,3.351-5.076,8.148-4.391,12.905c5.61,38.938,26.17,73.181,57.891,96.424
	c25.172,18.441,54.819,28.089,85.356,28.088c7.946,0,15.955-0.653,23.958-1.975l36.758-5.985C256.259,432.8,255.886,0,256.115,0z"/>
<path style="fill:#4C8C51;" d="M271.002,227.938c0-8.291-6.718-15.013-15.004-15.013c-8.287,0-15.004,6.722-15.004,15.013
	l0.004,269.048c0,8.291,6.718,15.013,15.004,15.013c8.287,0,15.004-6.722,15.004-15.013L271.002,227.938z"/>
<g>
</g>
<g>
</g>
<g>
</g>
<g>
</g>
<g>
</g>
<g>
</g>
<g>
</g>
<g>
</g>
<g>
</g>
<g>
</g>
<g>
</g>
<g>
</g>
<g>
</g>
<g>
</g>
<g>
</g>
</svg>
