<?xml version="1.0" encoding="iso-8859-1"?>
<!-- Generator: Adobe Illustrator 19.0.0, SVG Export Plug-In . SVG Version: 6.00 Build 0)  -->
<svg version="1.1" id="Capa_1" xmlns="http://www.w3.org/2000/svg" xmlns:xlink="http://www.w3.org/1999/xlink" x="0px" y="0px"
	 viewBox="0 0 512 512" style="enable-background:new 0 0 512 512;" xml:space="preserve">
<path style="fill:#A67955;" d="M292.03,234.631c-0.309-8.055-6.928-14.631-14.989-14.631h-42.082
	c-8.062,0-14.681,6.576-14.989,14.631l-10.003,261.693c-0.155,4.075,1.354,8.088,4.182,11.027c2.828,2.938,6.729,4.649,10.808,4.649
	h62.088c4.078,0,7.979-1.66,10.808-4.598c2.827-2.938,4.337-7.003,4.182-11.078L292.03,234.631z"/>
<path style="fill:#DEA06D;" d="M256.001,220h-21.042c-8.062,0-14.681,6.576-14.989,14.631l-10.003,261.693
	c-0.155,4.075,1.354,8.088,4.182,11.027c2.828,2.938,6.729,4.649,10.808,4.649h31.045V220H256.001z"/>
<path style="fill:#57A15E;" d="M437.607,193.688c0-28.978-10.407-56.151-29.497-77.508c2.241-8.026,3.407-16.456,3.407-24.826
	c0-50.061-40.706-90.789-90.675-90.789L192.195,0c-50.071,0-91.211,40.252-91.706,89.727c-0.089,8.722,1.047,17.279,3.384,25.551
	c-19.081,21.355-29.48,48.525-29.48,77.504s10.407,56.152,29.498,77.509c-2.242,8.025-3.408,16.455-3.408,24.826
	c0,50.062,40.537,90.789,90.3,90.789l129.022,0.554c50.071,0,91.211-40.25,91.707-89.723c0.089-8.72-1.047-17.275-3.385-25.546
	C427.208,249.836,437.607,222.667,437.607,193.688z"/>
<path style="fill:#6AC473;" d="M255.33,0.354L192.195,0c-50.071,0-91.211,40.252-91.706,89.727
	c-0.089,8.722,1.047,17.279,3.384,25.551c-19.081,21.355-29.48,48.525-29.48,77.504s10.407,56.152,29.498,77.509
	c-2.242,8.025-3.408,16.455-3.408,24.826c0,50.062,40.537,90.789,90.3,90.789l64.547,0.351L255.33,0.354L255.33,0.354z"/>
<path style="fill:#57A15E;" d="M193.86,289.062c-4.131-7.182-13.3-9.654-20.481-5.526c-7.182,4.13-9.655,13.3-5.526,20.481
	l10.001,17.393c2.775,4.825,7.824,7.525,13.018,7.525c2.536,0,5.107-0.645,7.464-1.999c7.182-4.13,9.655-13.3,5.526-20.481
	L193.86,289.062z"/>
<path style="fill:#4C8C51;" d="M338.621,283.535c-7.183-4.126-16.352-1.654-20.481,5.526l-10.001,17.393
	c-4.129,7.182-1.655,16.352,5.526,20.481c2.357,1.354,4.927,1.999,7.464,1.999c5.192,0,10.243-2.701,13.018-7.525l10.001-17.393
	C348.276,296.835,345.803,287.665,338.621,283.535z"/>
<g>
</g>
<g>
</g>
<g>
</g>
<g>
</g>
<g>
</g>
<g>
</g>
<g>
</g>
<g>
</g>
<g>
</g>
<g>
</g>
<g>
</g>
<g>
</g>
<g>
</g>
<g>
</g>
<g>
</g>
</svg>
