<?xml version="1.0" encoding="iso-8859-1"?>
<!-- Generator: Adobe Illustrator 19.0.0, SVG Export Plug-In . SVG Version: 6.00 Build 0)  -->
<svg xmlns="http://www.w3.org/2000/svg" xmlns:xlink="http://www.w3.org/1999/xlink" version="1.1" id="Capa_1" x="0px" y="0px" viewBox="0 0 512 512" style="enable-background:new 0 0 512 512;" xml:space="preserve">
<g>
	<path style="fill:#FEA832;" d="M271,15v61c0,8.399-6.599,15-15,15s-15-6.601-15-15V15c0-8.401,6.599-15,15-15S271,6.599,271,15z"/>
	<path style="fill:#FEA832;" d="M201.973,104.184l-42.437-42.437c-5.859-5.859-5.859-15.352,0-21.211s15.352-5.859,21.211,0   l42.437,42.437c5.859,5.859,5.859,15.352,0,21.211C217.324,110.043,207.832,110.043,201.973,104.184z"/>
	<path style="fill:#FEA832;" d="M195,151h-60c-8.291,0-15-6.709-15-15s6.709-15,15-15h60c8.291,0,15,6.709,15,15   S203.291,151,195,151z"/>
</g>
<g>
	<path style="fill:#FE9923;" d="M377,151h-60c-8.291,0-15-6.709-15-15s6.709-15,15-15h60c8.291,0,15,6.709,15,15   S385.291,151,377,151z"/>
	<path style="fill:#FE9923;" d="M288.816,104.184c-5.859-5.859-5.859-15.352,0-21.211l42.437-42.437   c5.859-5.859,15.352-5.859,21.211,0s5.859,15.352,0,21.211l-42.437,42.437C304.168,110.043,294.676,110.043,288.816,104.184z"/>
	<path style="fill:#FE9923;" d="M271,15v61c0,8.399-6.599,15-15,15V0C264.401,0,271,6.599,271,15z"/>
</g>
<path style="fill:#FEDB41;" d="M256,61c-41.4,0-76,33.6-76,75s34.6,75,76,75s76-33.6,76-75S297.4,61,256,61z"/>
<path style="fill:#FFCC33;" d="M332,136c0,41.4-34.6,75-76,75V61C297.4,61,332,94.6,332,136z"/>
<rect x="210" y="406" style="fill:#C5C9F7;" width="92" height="91"/>
<rect x="256" y="406" style="fill:#A8AFF1;" width="46" height="91"/>
<path style="fill:#18A7FC;" d="M511.399,417.1l-18.9-71.1l-8.099-30l-12-45l-8.101-30l-12.9-48.9c-1.8-6.601-7.5-11.1-14.399-11.1  H75c-6.899,0-12.599,4.499-14.399,11.1l-12.9,48.9L39.6,271l-12.001,45L19.5,346L0.6,417.1c-1.201,4.499-0.3,9.3,2.399,12.9  C6,433.9,10.201,436,15,436h482c4.799,0,9-2.1,12.001-6C511.7,426.4,512.601,421.599,511.399,417.1z"/>
<path style="fill:#1689FC;" d="M509.001,430c-3.001,3.9-7.202,6-12.001,6H256V181h181c6.899,0,12.599,4.499,14.399,11.1l12.9,48.9  l8.101,30l12.001,45l8.099,30l18.9,71.1C512.601,421.599,511.7,426.4,509.001,430z"/>
<path style="fill:#1DE8F1;" d="M425.6,211H86.4L34.501,406H477.5L425.6,211z"/>
<polygon style="fill:#1BD9DE;" points="477.499,406 256,406 256,211 425.6,211 "/>
<polygon style="fill:#18A7FC;" points="182.1,181 174,241 170.099,271 164.099,316 160.201,346 148.2,436 117.9,436 129.901,346   133.801,316 139.799,271 143.699,241 151.8,181 "/>
<polygon style="fill:#1689FC;" points="394.1,436 363.8,436 351.799,346 347.901,316 341.901,271 337.7,241 329.9,181 360.2,181   368.301,241 372.201,271 378.199,316 382.099,346 "/>
<rect x="241" y="181" style="fill:#18A7FC;" width="30" height="255"/>
<rect x="256" y="181" style="fill:#1689FC;" width="15" height="255"/>
<polygon style="fill:#18A7FC;" points="492.499,346 19.501,346 27.599,316 484.401,316 "/>
<polygon style="fill:#1689FC;" points="492.499,346 256,346 256,316 484.401,316 "/>
<polygon style="fill:#18A7FC;" points="472.4,271 39.6,271 47.701,241 464.299,241 "/>
<polygon style="fill:#1689FC;" points="472.4,271 256,271 256,241 464.299,241 "/>
<path style="fill:#E1E4FB;" d="M332,497c0,8.399-6.599,15-15,15H195c-8.401,0-15-6.601-15-15c0-8.401,6.599-15,15-15h122  C325.401,482,332,488.599,332,497z"/>
<path style="fill:#C5C9F7;" d="M332,497c0,8.399-6.599,15-15,15h-61v-30h61C325.401,482,332,488.599,332,497z"/>
<g>
</g>
<g>
</g>
<g>
</g>
<g>
</g>
<g>
</g>
<g>
</g>
<g>
</g>
<g>
</g>
<g>
</g>
<g>
</g>
<g>
</g>
<g>
</g>
<g>
</g>
<g>
</g>
<g>
</g>
</svg>
