<?xml version="1.0" encoding="iso-8859-1"?>
<!-- Generator: Adobe Illustrator 19.0.0, SVG Export Plug-In . SVG Version: 6.00 Build 0)  -->
<svg xmlns="http://www.w3.org/2000/svg" xmlns:xlink="http://www.w3.org/1999/xlink" version="1.1" id="Capa_1" x="0px" y="0px" viewBox="0 0 512 512" style="enable-background:new 0 0 512 512;" xml:space="preserve">
<polygon style="fill:#3A4DE2;" points="305.631,0 241.611,121.762 212.513,195.785 212.513,212.04 212.513,212.04 212.513,212.04   212.513,228.296 323.165,228.296 443.196,0 "/>
<polygon style="fill:#0088FF;" points="206.369,0 68.804,0 188.839,228.294 326.404,228.294 "/>
<path style="fill:#FF9800;" d="M396.34,371.66C396.34,449.04,333.38,512,256,512s-140.34-62.96-140.34-140.34  c0-52.15,28.96-99.79,74.58-124v-37.54h131.52v37.54C367.38,271.87,396.34,319.51,396.34,371.66z"/>
<path style="fill:#E47500;" d="M396.34,371.66C396.34,449.04,333.38,512,256,512V210.12h65.76v37.54  C367.38,271.87,396.34,319.51,396.34,371.66z"/>
<path style="fill:#FFB74D;" d="M347.14,371.66c0,50.33-40.8,91.14-91.14,91.14s-91.14-40.81-91.14-91.14  c0-50.34,40.8-91.14,91.14-91.14S347.14,321.32,347.14,371.66z"/>
<rect x="159.41" y="210.12" style="fill:#FFA81F;" width="193.18" height="30"/>
<g>
	<path style="fill:#FF9800;" d="M347.14,371.66c0,50.33-40.8,91.14-91.14,91.14V280.52C306.34,280.52,347.14,321.32,347.14,371.66z"/>
	<rect x="256" y="210.12" style="fill:#FF9800;" width="96.59" height="30"/>
</g>
<g>
</g>
<g>
</g>
<g>
</g>
<g>
</g>
<g>
</g>
<g>
</g>
<g>
</g>
<g>
</g>
<g>
</g>
<g>
</g>
<g>
</g>
<g>
</g>
<g>
</g>
<g>
</g>
<g>
</g>
</svg>
